# xmcd
#
# Track frame offsets: 
#        150
#        4410
#        18330
#        45466
#        62002
#
# Disc length: 1316 seconds
#
# Revision: 1
# Processed by: cddbd v1.5.2PL0 Copyright (c) Steve Scherf et al.
# Submitted via: ExactAudioCopy v0.99pb4
#
DISCID=35052205
DTITLE=Bruce Springsteen - St. Paul, 5-10-05(Lonelyboy version-Disc 3)
DYEAR=2005
DGENRE=Rock and Roll
TTITLE0=Special Dedication To St-Paul Officer Sgt Gerald Vic
TTITLE1=A Good Man Is Hard To Find
TTITLE2=Land Of Hope And Dreams
TTITLE3=My Best Was Never Good Enough
TTITLE4=Promised Land
EXTD=
EXTT0=
EXTT1=
EXTT2=
EXTT3=
EXTT4=
PLAYORDER=
